<svg id="Layer_1" data-name="Layer 1" xmlns="http://www.w3.org/2000/svg" viewBox="0 0 415.94 69.34"><defs><style>.cls-1{fill:#fff;}</style></defs><path class="cls-1" d="M69.35,377.72,47.17,326.45h4.68l20.66,48.1H70.35L91,326.45H95.7L73.45,377.72Z" transform="translate(-47.17 -324.72)"/><path class="cls-1" d="M101.46,326.74h5.83v5.62h-5.83Zm.65,51V341.64h4.39v36.08Z" transform="translate(-47.17 -324.72)"/><path class="cls-1" d="M130.26,378.22q-8.79,0-13.9-4.82L118,370a20.47,20.47,0,0,0,5.76,3.35,19.5,19.5,0,0,0,6.69,1q4.54,0,6.84-1.54a5.1,5.1,0,0,0,2.31-4.5,5,5,0,0,0-1.55-3.82,11.42,11.42,0,0,0-5.08-2.3l-6.12-1.44a13,13,0,0,1-6.8-3.53,8.46,8.46,0,0,1-2.48-6,9.32,9.32,0,0,1,1.65-5.51,10.74,10.74,0,0,1,4.65-3.63,17.42,17.42,0,0,1,7-1.3A20.33,20.33,0,0,1,138,342a14.11,14.11,0,0,1,5.47,3.53l-1.65,3.39a19.17,19.17,0,0,0-5.15-3.24,14.9,14.9,0,0,0-5.72-1.08,11,11,0,0,0-6.48,1.65,5.3,5.3,0,0,0-2.31,4.54,5.46,5.46,0,0,0,1.44,4,9.6,9.6,0,0,0,4.61,2.27l6.12,1.51q5,1.08,7.34,3.5a8.27,8.27,0,0,1,2.38,6.08,8.71,8.71,0,0,1-3.71,7.31Q136.6,378.23,130.26,378.22Z" transform="translate(-47.17 -324.72)"/><path class="cls-1" d="M166.76,378.22q-6.4,0-9.65-3.53t-3.24-10.44V341.64h4.4V364q0,5.32,2.16,7.81c1.44,1.65,3.64,2.48,6.62,2.48a11.14,11.14,0,0,0,8.5-3.35,12.4,12.4,0,0,0,3.16-8.89V341.64h4.4v36.08h-4.25v-8l.79-.64a12.39,12.39,0,0,1-4.93,6.84A14.17,14.17,0,0,1,166.76,378.22Z" transform="translate(-47.17 -324.72)"/><path class="cls-1" d="M208.81,378.22a15.49,15.49,0,0,1-8.46-2.3,15.19,15.19,0,0,1-5.62-6.45,22.56,22.56,0,0,1-2-9.83,22.83,22.83,0,0,1,2-9.93,15.56,15.56,0,0,1,5.65-6.59,15.15,15.15,0,0,1,8.39-2.34,14.3,14.3,0,0,1,8.6,2.52,12.43,12.43,0,0,1,4.72,7.27l-.87.58v-9.51h4.4v36.08h-4.4v-9.87l.87.51a12.6,12.6,0,0,1-4.72,7.3A14.12,14.12,0,0,1,208.81,378.22Zm.57-3.89q5.76,0,8.82-3.89t3.06-10.94q0-7.2-3.09-11c-2.07-2.54-5-3.81-8.79-3.81a10.86,10.86,0,0,0-8.89,3.92q-3.19,3.93-3.2,11.05t3.2,10.88A11,11,0,0,0,209.38,374.33Z" transform="translate(-47.17 -324.72)"/><path class="cls-1" d="M237.61,377.72v-53H242v53Z" transform="translate(-47.17 -324.72)"/><path class="cls-1" d="M304.06,379.37S295.89,348.2,288,341.64c-18.61-15.48-43.21-2-43.21-2s25.8-21.72,47.89,2c6.16,6.64,13.82,33.48,13.82,33.48Zm-13.53,14.69-.87-3.46a29.06,29.06,0,0,0,5.62-1.87,11.76,11.76,0,0,0,3.85-2.81,16.57,16.57,0,0,0,2.77-4.6l2.16-5.12.87-1.08s9.6-31.85,16.55-37.68c18.72-15.72,42.36,1.44,42.36,1.44s-25-11.16-39.84.72c-8.45,6.75-17.63,41.86-17.63,41.86a25.42,25.42,0,0,1-4.21,6.73A15.82,15.82,0,0,1,296.9,392,31,31,0,0,1,290.53,394.06Z" transform="translate(-47.17 -324.72)"/><path class="cls-1" d="M366.78,377.72v-3L392.7,342.8l1,2.37h-26v-3.53h28.37V345l-25.7,31.6-.94-2.44h27.43v3.6Z" transform="translate(-47.17 -324.72)"/><path class="cls-1" d="M434.31,373.25a16,16,0,0,1-6,3.64,22,22,0,0,1-7.56,1.33,18.91,18.91,0,0,1-9.44-2.23,15.27,15.27,0,0,1-6.12-6.41,24.08,24.08,0,0,1,0-19.87,15.78,15.78,0,0,1,5.94-6.59,16.44,16.44,0,0,1,8.78-2.34,15.27,15.27,0,0,1,8.07,2.05,13.29,13.29,0,0,1,5.18,5.94,22.35,22.35,0,0,1,1.8,9.43v.94H407l-.07-3.31h25.7l-1.65,2.81q.21-6.92-2.63-10.59t-8.39-3.67a10.94,10.94,0,0,0-9,4q-3.29,4-3.28,11,0,7.33,3.35,11.16t9.68,3.81a17.78,17.78,0,0,0,6.23-1.08,20.23,20.23,0,0,0,5.73-3.38Z" transform="translate(-47.17 -324.72)"/><path class="cls-1" d="M444.39,377.72V351.65c0-1.63,0-3.3-.11-5a48.05,48.05,0,0,0-.46-5H448l.72,8.64-.72-.14a11.36,11.36,0,0,1,4.43-7,12.65,12.65,0,0,1,7.52-2.38c.63,0,1.19,0,1.7.07a14.06,14.06,0,0,1,1.47.22l-.14,4a13.53,13.53,0,0,0-3.39-.36,10.21,10.21,0,0,0-6.33,1.8,10.07,10.07,0,0,0-3.42,4.5,15.1,15.1,0,0,0-1.05,5.51v21.17Z" transform="translate(-47.17 -324.72)"/><path class="cls-1" d="M291.21,362.93c-1.42,1.42-5,7.73-16.54,9.2-14.88,1.9-22.32-11.64-22.32-11.64s3.86-9.56,10.39-13.85a18.17,18.17,0,0,1,8.57-2.73,17.61,17.61,0,0,1,8.19,1,14.56,14.56,0,0,1,5.6,4.51c2.59,3.07,5.19,8.9,5.19,8.9-10.36-3.49-19-10.28-34.83,2.62l-.17-2c14.17-11.42,23.29-9.76,31.3-3.57l-.66.69c-.58-2.48-4.5-5.93-5.72-6.83a12,12,0,0,0-8.63-2.33c-3.78.33-6.19,2.18-8.64,4.12s-6.91,9.12-6.91,9.12,5.57,9,18.28,8.73A29.14,29.14,0,0,0,291.21,362.93Z" transform="translate(-47.17 -324.72)"/><circle class="cls-1" cx="229.54" cy="34.64" r="7.92"/><path class="cls-1" d="M357.45,362.93c-1.42,1.42-5,7.73-16.54,9.2-14.88,1.9-22.32-11.64-22.32-11.64s3.86-9.56,10.39-13.85a18.17,18.17,0,0,1,8.57-2.73,17.61,17.61,0,0,1,8.19,1,14.56,14.56,0,0,1,5.6,4.51c2.59,3.07,5.19,8.9,5.19,8.9-10.36-3.49-19-10.28-34.83,2.62l-.17-2c14.17-11.42,23.29-9.76,31.3-3.57l-.66.69c-.58-2.48-4.5-5.93-5.72-6.83a12,12,0,0,0-8.63-2.33c-3.78.33-6.19,2.18-8.64,4.12s-6.91,9.12-6.91,9.12,5.57,9,18.28,8.73A29.14,29.14,0,0,0,357.45,362.93Z" transform="translate(-47.17 -324.72)"/><circle class="cls-1" cx="295.78" cy="34.64" r="7.92"/></svg>